<svg width="45" height="44" viewBox="0 0 45 44" fill="none" xmlns="http://www.w3.org/2000/svg">
<g id="Group 42">
<path id="Vector" d="M7.50247 8.62553C4.24422 12.2704 2.42181 16.9644 2.36658 21.8426C2.23773 32.998 11.3498 42.1469 22.4867 42.1837C33.6237 42.2021 42.6069 33.1821 42.6069 22.0635C42.6069 11.1106 33.8446 2.18267 22.9469 1.94336C22.8917 1.94336 22.8181 1.94336 22.7629 1.98018C22.7076 1.99858 22.6524 2.0354 22.6156 2.07222C22.5788 2.10903 22.542 2.16426 22.5051 2.21948C22.4867 2.27471 22.4683 2.32993 22.4683 2.40356V11.1659" stroke="white" stroke-width="3.20104" stroke-linecap="round" stroke-linejoin="round"/>
<path id="Vector_2" d="M20.1307 24.4191L11.847 12.5826C11.7182 12.417 11.6813 12.2145 11.6998 12.012C11.7182 11.8095 11.7918 11.6254 11.9391 11.4781C12.0863 11.3309 12.2704 11.2572 12.4729 11.2388C12.657 11.2204 12.8595 11.2757 13.0251 11.3861L24.8616 19.6698C25.5795 20.1852 26.0766 20.9768 26.2238 21.8604C26.3711 22.744 26.1686 23.646 25.6532 24.3823C25.1377 25.1186 24.3646 25.6156 23.481 25.7813C22.5974 25.947 21.6954 25.7445 20.9591 25.2475C20.6461 25.0266 20.3516 24.7505 20.1307 24.4191Z" fill="white"/>
</g>
</svg>
